G04 #@! TF.FileFunction,Paste,Bot*
%FSLAX46Y46*%
G04 Gerber Fmt 4.6, Leading zero omitted, Abs format (unit mm)*
G04 Created by KiCad (PCBNEW 4.0.5-e0-6337~49~ubuntu14.04.1) date Fri Jun 16 13:29:29 2017*
%MOMM*%
%LPD*%
G01*
G04 APERTURE LIST*
%ADD10C,0.100000*%
%ADD11R,1.200000X1.000000*%
%ADD12R,1.800000X1.250000*%
%ADD13R,1.000000X1.200000*%
%ADD14R,0.500000X0.800000*%
%ADD15R,0.800000X0.500000*%
%ADD16R,1.200000X0.600000*%
%ADD17R,0.250000X0.475000*%
%ADD18R,0.375000X0.250000*%
%ADD19R,0.300000X0.800000*%
%ADD20R,1.000000X1.400000*%
%ADD21R,2.000000X1.000000*%
%ADD22R,1.700000X0.600000*%
%ADD23R,2.700000X1.000000*%
%ADD24R,0.600000X1.700000*%
%ADD25R,1.000000X2.700000*%
%ADD26R,0.800000X0.300000*%
%ADD27C,1.500000*%
G04 APERTURE END LIST*
D10*
G36*
X244754135Y-73356458D02*
X246226379Y-72506458D01*
X246526379Y-73026074D01*
X245054135Y-73876074D01*
X244754135Y-73356458D01*
X244754135Y-73356458D01*
G37*
G36*
X245379135Y-74438990D02*
X246851379Y-73588990D01*
X247151379Y-74108606D01*
X245679135Y-74958606D01*
X245379135Y-74438990D01*
X245379135Y-74438990D01*
G37*
G36*
X244129135Y-72273926D02*
X245601379Y-71423926D01*
X245901379Y-71943542D01*
X244429135Y-72793542D01*
X244129135Y-72273926D01*
X244129135Y-72273926D01*
G37*
G36*
X243504135Y-71191394D02*
X244976379Y-70341394D01*
X245276379Y-70861010D01*
X243804135Y-71711010D01*
X243504135Y-71191394D01*
X243504135Y-71191394D01*
G37*
G36*
X248450000Y-74657884D02*
X250788268Y-73307884D01*
X251288268Y-74173910D01*
X248950000Y-75523910D01*
X248450000Y-74657884D01*
X248450000Y-74657884D01*
G37*
G36*
X244650000Y-68076090D02*
X246988268Y-66726090D01*
X247488268Y-67592116D01*
X245150000Y-68942116D01*
X244650000Y-68076090D01*
X244650000Y-68076090D01*
G37*
D11*
X217400000Y-63200000D03*
X217400000Y-61200000D03*
D12*
X222500000Y-80000000D03*
X225100000Y-80000000D03*
D10*
G36*
X220869670Y-76583883D02*
X220516117Y-76230330D01*
X221081802Y-75664645D01*
X221435355Y-76018198D01*
X220869670Y-76583883D01*
X220869670Y-76583883D01*
G37*
G36*
X221718198Y-75735355D02*
X221364645Y-75381802D01*
X221930330Y-74816117D01*
X222283883Y-75169670D01*
X221718198Y-75735355D01*
X221718198Y-75735355D01*
G37*
D13*
X221500000Y-64600000D03*
X219500000Y-64600000D03*
D14*
X207100000Y-92000000D03*
X207100000Y-93200000D03*
X230400000Y-84900000D03*
X230400000Y-86100000D03*
D15*
X228400000Y-89000000D03*
X227200000Y-89000000D03*
X227200000Y-82200000D03*
X228400000Y-82200000D03*
X227200000Y-83200000D03*
X228400000Y-83200000D03*
D14*
X213300000Y-73100000D03*
X213300000Y-74300000D03*
D10*
G36*
X214530152Y-72689340D02*
X215166548Y-73325736D01*
X214954416Y-73537868D01*
X214318020Y-72901472D01*
X214530152Y-72689340D01*
X214530152Y-72689340D01*
G37*
G36*
X214883705Y-72335787D02*
X215732233Y-73184315D01*
X215520101Y-73396447D01*
X214671573Y-72547919D01*
X214883705Y-72335787D01*
X214883705Y-72335787D01*
G37*
G36*
X215237258Y-71982233D02*
X216085786Y-72830761D01*
X215873654Y-73042893D01*
X215025126Y-72194365D01*
X215237258Y-71982233D01*
X215237258Y-71982233D01*
G37*
G36*
X215590812Y-71628680D02*
X216439340Y-72477208D01*
X216227208Y-72689340D01*
X215378680Y-71840812D01*
X215590812Y-71628680D01*
X215590812Y-71628680D01*
G37*
G36*
X215944365Y-71275126D02*
X216792893Y-72123654D01*
X216580761Y-72335786D01*
X215732233Y-71487258D01*
X215944365Y-71275126D01*
X215944365Y-71275126D01*
G37*
G36*
X216297919Y-70921573D02*
X217146447Y-71770101D01*
X216934315Y-71982233D01*
X216085787Y-71133705D01*
X216297919Y-70921573D01*
X216297919Y-70921573D01*
G37*
G36*
X216651472Y-70568020D02*
X217287868Y-71204416D01*
X217075736Y-71416548D01*
X216439340Y-70780152D01*
X216651472Y-70568020D01*
X216651472Y-70568020D01*
G37*
G36*
X218560660Y-70780152D02*
X217924264Y-71416548D01*
X217712132Y-71204416D01*
X218348528Y-70568020D01*
X218560660Y-70780152D01*
X218560660Y-70780152D01*
G37*
G36*
X218914213Y-71133705D02*
X218065685Y-71982233D01*
X217853553Y-71770101D01*
X218702081Y-70921573D01*
X218914213Y-71133705D01*
X218914213Y-71133705D01*
G37*
G36*
X219267767Y-71487258D02*
X218419239Y-72335786D01*
X218207107Y-72123654D01*
X219055635Y-71275126D01*
X219267767Y-71487258D01*
X219267767Y-71487258D01*
G37*
G36*
X219621320Y-71840812D02*
X218772792Y-72689340D01*
X218560660Y-72477208D01*
X219409188Y-71628680D01*
X219621320Y-71840812D01*
X219621320Y-71840812D01*
G37*
G36*
X219974874Y-72194365D02*
X219126346Y-73042893D01*
X218914214Y-72830761D01*
X219762742Y-71982233D01*
X219974874Y-72194365D01*
X219974874Y-72194365D01*
G37*
G36*
X220328427Y-72547919D02*
X219479899Y-73396447D01*
X219267767Y-73184315D01*
X220116295Y-72335787D01*
X220328427Y-72547919D01*
X220328427Y-72547919D01*
G37*
G36*
X220681980Y-72901472D02*
X220045584Y-73537868D01*
X219833452Y-73325736D01*
X220469848Y-72689340D01*
X220681980Y-72901472D01*
X220681980Y-72901472D01*
G37*
G36*
X220045584Y-73962132D02*
X220681980Y-74598528D01*
X220469848Y-74810660D01*
X219833452Y-74174264D01*
X220045584Y-73962132D01*
X220045584Y-73962132D01*
G37*
G36*
X219479899Y-74103553D02*
X220328427Y-74952081D01*
X220116295Y-75164213D01*
X219267767Y-74315685D01*
X219479899Y-74103553D01*
X219479899Y-74103553D01*
G37*
G36*
X219126346Y-74457107D02*
X219974874Y-75305635D01*
X219762742Y-75517767D01*
X218914214Y-74669239D01*
X219126346Y-74457107D01*
X219126346Y-74457107D01*
G37*
G36*
X218772792Y-74810660D02*
X219621320Y-75659188D01*
X219409188Y-75871320D01*
X218560660Y-75022792D01*
X218772792Y-74810660D01*
X218772792Y-74810660D01*
G37*
G36*
X218419239Y-75164214D02*
X219267767Y-76012742D01*
X219055635Y-76224874D01*
X218207107Y-75376346D01*
X218419239Y-75164214D01*
X218419239Y-75164214D01*
G37*
G36*
X218065685Y-75517767D02*
X218914213Y-76366295D01*
X218702081Y-76578427D01*
X217853553Y-75729899D01*
X218065685Y-75517767D01*
X218065685Y-75517767D01*
G37*
G36*
X217924264Y-76083452D02*
X218560660Y-76719848D01*
X218348528Y-76931980D01*
X217712132Y-76295584D01*
X217924264Y-76083452D01*
X217924264Y-76083452D01*
G37*
G36*
X217287868Y-76295584D02*
X216651472Y-76931980D01*
X216439340Y-76719848D01*
X217075736Y-76083452D01*
X217287868Y-76295584D01*
X217287868Y-76295584D01*
G37*
G36*
X217146447Y-75729899D02*
X216297919Y-76578427D01*
X216085787Y-76366295D01*
X216934315Y-75517767D01*
X217146447Y-75729899D01*
X217146447Y-75729899D01*
G37*
G36*
X216792893Y-75376346D02*
X215944365Y-76224874D01*
X215732233Y-76012742D01*
X216580761Y-75164214D01*
X216792893Y-75376346D01*
X216792893Y-75376346D01*
G37*
G36*
X216439340Y-75022792D02*
X215590812Y-75871320D01*
X215378680Y-75659188D01*
X216227208Y-74810660D01*
X216439340Y-75022792D01*
X216439340Y-75022792D01*
G37*
G36*
X216085786Y-74669239D02*
X215237258Y-75517767D01*
X215025126Y-75305635D01*
X215873654Y-74457107D01*
X216085786Y-74669239D01*
X216085786Y-74669239D01*
G37*
G36*
X215732233Y-74315685D02*
X214883705Y-75164213D01*
X214671573Y-74952081D01*
X215520101Y-74103553D01*
X215732233Y-74315685D01*
X215732233Y-74315685D01*
G37*
G36*
X215166548Y-74174264D02*
X214530152Y-74810660D01*
X214318020Y-74598528D01*
X214954416Y-73962132D01*
X215166548Y-74174264D01*
X215166548Y-74174264D01*
G37*
G36*
X214848349Y-73007538D02*
X215414035Y-73573224D01*
X214989771Y-73573224D01*
X214848349Y-73431802D01*
X214848349Y-73007538D01*
X214848349Y-73007538D01*
G37*
G36*
X215414035Y-73926776D02*
X214848349Y-74492462D01*
X214848349Y-74068198D01*
X214989771Y-73926776D01*
X215414035Y-73926776D01*
X215414035Y-73926776D01*
G37*
G36*
X219585965Y-73573224D02*
X220151651Y-73007538D01*
X220151651Y-73431802D01*
X220010229Y-73573224D01*
X219585965Y-73573224D01*
X219585965Y-73573224D01*
G37*
G36*
X220151651Y-74492462D02*
X219585965Y-73926776D01*
X220010229Y-73926776D01*
X220151651Y-74068198D01*
X220151651Y-74492462D01*
X220151651Y-74492462D01*
G37*
G36*
X217323224Y-71664035D02*
X216757538Y-71098349D01*
X217181802Y-71098349D01*
X217323224Y-71239771D01*
X217323224Y-71664035D01*
X217323224Y-71664035D01*
G37*
G36*
X218242462Y-71098349D02*
X217676776Y-71664035D01*
X217676776Y-71239771D01*
X217818198Y-71098349D01*
X218242462Y-71098349D01*
X218242462Y-71098349D01*
G37*
G36*
X217676776Y-75835965D02*
X218242462Y-76401651D01*
X217818198Y-76401651D01*
X217676776Y-76260229D01*
X217676776Y-75835965D01*
X217676776Y-75835965D01*
G37*
G36*
X216757538Y-76401651D02*
X217323224Y-75835965D01*
X217323224Y-76260229D01*
X217181802Y-76401651D01*
X216757538Y-76401651D01*
X216757538Y-76401651D01*
G37*
D16*
X219250000Y-62200000D03*
X219250000Y-63150000D03*
X219250000Y-61250000D03*
X221550000Y-61250000D03*
X221550000Y-63150000D03*
D17*
X229050000Y-84437500D03*
X224550000Y-84437500D03*
X225050000Y-84437500D03*
X225550000Y-84437500D03*
X226050000Y-84437500D03*
X226550000Y-84437500D03*
X227050000Y-84437500D03*
X227550000Y-84437500D03*
X228050000Y-84437500D03*
X228550000Y-84437500D03*
X229050000Y-87562500D03*
X228550000Y-87562500D03*
X228050000Y-87562500D03*
X227550000Y-87562500D03*
X227050000Y-87562500D03*
X226550000Y-87562500D03*
X226050000Y-87562500D03*
X225550000Y-87562500D03*
X225050000Y-87562500D03*
X224550000Y-87562500D03*
D18*
X229115000Y-85250000D03*
X229115000Y-85750000D03*
X229115000Y-86250000D03*
X229115000Y-86750000D03*
X224485000Y-86750000D03*
X224485000Y-86250000D03*
X224485000Y-85750000D03*
X224485000Y-85250000D03*
D15*
X239500000Y-72800000D03*
X238300000Y-72800000D03*
X239500000Y-73500000D03*
X238300000Y-73500000D03*
X238400000Y-85400000D03*
X237200000Y-85400000D03*
D19*
X243350000Y-75200000D03*
X242700000Y-75200000D03*
X242050000Y-75200000D03*
X242050000Y-73200000D03*
X242700000Y-73200000D03*
X243350000Y-73200000D03*
D20*
X225900000Y-102350000D03*
X221700000Y-102350000D03*
D21*
X227300000Y-104500000D03*
X220300000Y-104500000D03*
D22*
X205350000Y-90750000D03*
X205350000Y-89500000D03*
X205350000Y-92000000D03*
X205350000Y-93250000D03*
D23*
X202300000Y-83825000D03*
X202300000Y-95175000D03*
D22*
X205350000Y-88250000D03*
X205350000Y-87000000D03*
X205350000Y-85750000D03*
X247550000Y-92875000D03*
X247550000Y-94125000D03*
X247550000Y-91625000D03*
X247550000Y-90375000D03*
D23*
X250600000Y-96050000D03*
X250600000Y-88450000D03*
D22*
X247550000Y-82375000D03*
X247550000Y-83625000D03*
X247550000Y-81125000D03*
X247550000Y-79875000D03*
D23*
X250600000Y-85550000D03*
X250600000Y-77950000D03*
D10*
G36*
X238106458Y-66670865D02*
X238956458Y-65198621D01*
X239476074Y-65498621D01*
X238626074Y-66970865D01*
X238106458Y-66670865D01*
X238106458Y-66670865D01*
G37*
G36*
X239188990Y-67295865D02*
X240038990Y-65823621D01*
X240558606Y-66123621D01*
X239708606Y-67595865D01*
X239188990Y-67295865D01*
X239188990Y-67295865D01*
G37*
G36*
X237023926Y-66045865D02*
X237873926Y-64573621D01*
X238393542Y-64873621D01*
X237543542Y-66345865D01*
X237023926Y-66045865D01*
X237023926Y-66045865D01*
G37*
G36*
X235941394Y-65420865D02*
X236791394Y-63948621D01*
X237311010Y-64248621D01*
X236461010Y-65720865D01*
X235941394Y-65420865D01*
X235941394Y-65420865D01*
G37*
G36*
X241957884Y-65950000D02*
X243307884Y-63611732D01*
X244173910Y-64111732D01*
X242823910Y-66450000D01*
X241957884Y-65950000D01*
X241957884Y-65950000D01*
G37*
G36*
X235376090Y-62150000D02*
X236726090Y-59811732D01*
X237592116Y-60311732D01*
X236242116Y-62650000D01*
X235376090Y-62150000D01*
X235376090Y-62150000D01*
G37*
D24*
X228625000Y-63150000D03*
X229875000Y-63150000D03*
X227375000Y-63150000D03*
X226125000Y-63150000D03*
D25*
X231800000Y-60100000D03*
X224200000Y-60100000D03*
D14*
X240700000Y-91250000D03*
X240700000Y-92450000D03*
X232100000Y-91250000D03*
X232100000Y-92450000D03*
D10*
G36*
X242010051Y-84441422D02*
X241444365Y-83875736D01*
X241656497Y-83663604D01*
X242222183Y-84229290D01*
X242010051Y-84441422D01*
X242010051Y-84441422D01*
G37*
G36*
X242469670Y-83981802D02*
X241903984Y-83416116D01*
X242116116Y-83203984D01*
X242681802Y-83769670D01*
X242469670Y-83981802D01*
X242469670Y-83981802D01*
G37*
G36*
X242929290Y-83522183D02*
X242363604Y-82956497D01*
X242575736Y-82744365D01*
X243141422Y-83310051D01*
X242929290Y-83522183D01*
X242929290Y-83522183D01*
G37*
G36*
X244343503Y-84936396D02*
X243777817Y-84370710D01*
X243989949Y-84158578D01*
X244555635Y-84724264D01*
X244343503Y-84936396D01*
X244343503Y-84936396D01*
G37*
G36*
X243883884Y-85396016D02*
X243318198Y-84830330D01*
X243530330Y-84618198D01*
X244096016Y-85183884D01*
X243883884Y-85396016D01*
X243883884Y-85396016D01*
G37*
G36*
X243424264Y-85855635D02*
X242858578Y-85289949D01*
X243070710Y-85077817D01*
X243636396Y-85643503D01*
X243424264Y-85855635D01*
X243424264Y-85855635D01*
G37*
D19*
X233250000Y-61850000D03*
X233750000Y-61850000D03*
X234250000Y-61850000D03*
X234750000Y-61850000D03*
X234750000Y-60550000D03*
X234250000Y-60550000D03*
X233750000Y-60550000D03*
X233250000Y-60550000D03*
D26*
X244350000Y-76650000D03*
X244350000Y-77150000D03*
X244350000Y-77650000D03*
X244350000Y-78150000D03*
X245650000Y-78150000D03*
X245650000Y-77650000D03*
X245650000Y-77150000D03*
X245650000Y-76650000D03*
D19*
X245750000Y-86400000D03*
X245250000Y-86400000D03*
X244750000Y-86400000D03*
X244250000Y-86400000D03*
X244250000Y-87700000D03*
X244750000Y-87700000D03*
X245250000Y-87700000D03*
X245750000Y-87700000D03*
D10*
G36*
X246139367Y-94664362D02*
X247474595Y-98434928D01*
X246060633Y-98935638D01*
X244725405Y-95165072D01*
X246139367Y-94664362D01*
X246139367Y-94664362D01*
G37*
D27*
X245432386Y-94914717D03*
D10*
G36*
X234239367Y-98864362D02*
X235574595Y-102634928D01*
X234160633Y-103135638D01*
X232825405Y-99365072D01*
X234239367Y-98864362D01*
X234239367Y-98864362D01*
G37*
D27*
X233532386Y-99114717D03*
D10*
G36*
X231906981Y-99749645D02*
X233242209Y-103520211D01*
X231828247Y-104020921D01*
X230493019Y-100250355D01*
X231906981Y-99749645D01*
X231906981Y-99749645D01*
G37*
D27*
X231200000Y-100000000D03*
D14*
X230400000Y-88900000D03*
X230400000Y-87700000D03*
D15*
X225500000Y-89000000D03*
X224300000Y-89000000D03*
D14*
X224500000Y-82700000D03*
X224500000Y-81500000D03*
D15*
X222700000Y-85300000D03*
X221500000Y-85300000D03*
M02*
